<svg height="400" viewBox="0 0 600 400" width="600" xmlns="http://www.w3.org/2000/svg"><line stroke="#CCCCCC" x1="56" x2="56" y1="40" y2="332"/><line stroke="#CCCCCC" x1="56" x2="576" y1="287.76" y2="287.76"/><text fill="#333333" font-size="12" text-anchor="middle" x="99.33" y="348">Jan</text><text fill="#333333" font-size="12" text-anchor="middle" x="186.00" y="348">Feb</text><text fill="#333333" font-size="12" text-anchor="middle" x="272.67" y="348">Mar</text><text fill="#333333" font-size="12" text-anchor="middle" x="359.33" y="348">Apr</text><text fill="#333333" font-size="12" text-anchor="middle" x="446.00" y="348">May</text><text fill="#333333" font-size="12" text-anchor="middle" x="532.67" y="348">Jun</text><text fill="#333333" font-size="12" text-anchor="end" x="48" y="338.00">-5</text><text fill="#333333" font-size="12" text-anchor="end" x="48" y="279.60">1.60</text><text fill="#333333" font-size="12" text-anchor="end" x="48" y="221.20">8.20</text><text fill="#333333" font-size="12" text-anchor="end" x="48" y="162.80">14.80</text><text fill="#333333" font-size="12" text-anchor="end" x="48" y="104.40">21.40</text><text fill="#333333" font-size="12" text-anchor="end" x="48" y="46.00">28</text><polyline fill="none" points="99.33,332.00 186.00,305.45 272.67,216.97 359.33,155.03 446.00,93.09 532.67,40.00" stroke="#4E79A7"/><circle cx="99.33" cy="332.00" fill="#4E79A7" r="3"/><circle cx="186.00" cy="305.45" fill="#4E79A7" r="3"/><circle cx="272.67" cy="216.97" fill="#4E79A7" r="3"/><circle cx="359.33" cy="155.03" fill="#4E79A7" r="3"/><circle cx="446.00" cy="93.09" fill="#4E79A7" r="3"/><circle cx="532.67" cy="40.00" fill="#4E79A7" r="3"/><text fill="#333333" font-size="18" text-anchor="middle" x="300.00" y="18">Monthly Temperatures (°C)</text><rect fill="#4E79A7" height="10" width="10" x="56" y="385.00"/><text fill="#333333" font-size="12" text-anchor="start" x="72" y="396.00">Temperature</text></svg>