<svg class="plotto-chart" height="450" viewBox="0 0 700 450" width="700" xmlns="http://www.w3.org/2000/svg"><line class="plotto-guideline plotto-guideline-y" stroke="#E0E0E0" stroke-dasharray="2,4" stroke-width="1" x1="56" x2="676" y1="313.6" y2="313.6"/><line class="plotto-guideline plotto-guideline-y" stroke="#E0E0E0" stroke-dasharray="2,4" stroke-width="1" x1="56" x2="676" y1="245.2" y2="245.2"/><line class="plotto-guideline plotto-guideline-y" stroke="#E0E0E0" stroke-dasharray="2,4" stroke-width="1" x1="56" x2="676" y1="176.8" y2="176.8"/><line class="plotto-guideline plotto-guideline-y" stroke="#E0E0E0" stroke-dasharray="2,4" stroke-width="1" x1="56" x2="676" y1="108.39999999999998" y2="108.39999999999998"/><line class="plotto-guideline plotto-guideline-y" stroke="#E0E0E0" stroke-dasharray="2,4" stroke-width="1" x1="56" x2="676" y1="40.0" y2="40.0"/><line class="plotto-guideline plotto-guideline-x" stroke="#E0E0E0" stroke-dasharray="2,4" stroke-width="1" x1="107.66666666666666" x2="107.66666666666666" y1="40" y2="382"/><line class="plotto-guideline plotto-guideline-x" stroke="#E0E0E0" stroke-dasharray="2,4" stroke-width="1" x1="211.0" x2="211.0" y1="40" y2="382"/><line class="plotto-guideline plotto-guideline-x" stroke="#E0E0E0" stroke-dasharray="2,4" stroke-width="1" x1="314.3333333333333" x2="314.3333333333333" y1="40" y2="382"/><line class="plotto-guideline plotto-guideline-x" stroke="#E0E0E0" stroke-dasharray="2,4" stroke-width="1" x1="417.6666666666667" x2="417.6666666666667" y1="40" y2="382"/><line class="plotto-guideline plotto-guideline-x" stroke="#E0E0E0" stroke-dasharray="2,4" stroke-width="1" x1="521.0" x2="521.0" y1="40" y2="382"/><line class="plotto-guideline plotto-guideline-x" stroke="#E0E0E0" stroke-dasharray="2,4" stroke-width="1" x1="624.3333333333333" x2="624.3333333333333" y1="40" y2="382"/><line class="plotto-axis plotto-axis-y" stroke="#CCCCCC" x1="56" x2="56" y1="40" y2="382"/><line class="plotto-axis plotto-axis-x" stroke="#CCCCCC" x1="56" x2="676" y1="382.00" y2="382.00"/><text class="plotto-label plotto-label-x" fill="#333333" font-size="12" text-anchor="middle" x="107.67" y="398">00:00</text><text class="plotto-label plotto-label-x" fill="#333333" font-size="12" text-anchor="middle" x="211.00" y="398">04:00</text><text class="plotto-label plotto-label-x" fill="#333333" font-size="12" text-anchor="middle" x="314.33" y="398">08:00</text><text class="plotto-label plotto-label-x" fill="#333333" font-size="12" text-anchor="middle" x="417.67" y="398">12:00</text><text class="plotto-label plotto-label-x" fill="#333333" font-size="12" text-anchor="middle" x="521.00" y="398">16:00</text><text class="plotto-label plotto-label-x" fill="#333333" font-size="12" text-anchor="middle" x="624.33" y="398">20:00</text><text class="plotto-label plotto-label-y" fill="#333333" font-size="12" text-anchor="end" x="48" y="388.00">0%</text><text class="plotto-label plotto-label-y" fill="#333333" font-size="12" text-anchor="end" x="48" y="319.60">20%</text><text class="plotto-label plotto-label-y" fill="#333333" font-size="12" text-anchor="end" x="48" y="251.20">40%</text><text class="plotto-label plotto-label-y" fill="#333333" font-size="12" text-anchor="end" x="48" y="182.80">60%</text><text class="plotto-label plotto-label-y" fill="#333333" font-size="12" text-anchor="end" x="48" y="114.40">80%</text><text class="plotto-label plotto-label-y" fill="#333333" font-size="12" text-anchor="end" x="48" y="46.00">100%</text><line class="plotto-guide-line plotto-guide-line-max" stroke="#C0392B" stroke-dasharray="6,4" stroke-width="1.5" x1="56" x2="676" y1="40.0" y2="40.0"/><polyline class="plotto-line" fill="none" points="107.67,299.92 211.00,320.44 314.33,193.90 417.67,81.04 521.00,122.08 624.33,238.36" stroke="#E74C3C" stroke-width="3"/><polyline class="plotto-line" fill="none" points="107.67,176.80 211.00,169.96 314.33,149.44 417.67,91.30 521.00,101.56 624.33,142.60" stroke="#3498DB" stroke-dasharray="6,4" stroke-width="3"/><polyline class="plotto-line" fill="none" points="107.67,347.80 211.00,330.70 314.33,262.30 417.67,159.70 521.00,245.20 624.33,313.60" stroke="#2ECC71" stroke-dasharray="2,4" stroke-width="3"/><circle class="plotto-point" cx="107.67" cy="299.92" data-title="CPU Utilization - 00:00: 24%" fill="#E74C3C" r="3"/><circle class="plotto-point" cx="211.00" cy="320.44" data-title="CPU Utilization - 04:00: 18%" fill="#E74C3C" r="3"/><circle class="plotto-point" cx="314.33" cy="193.90" data-title="CPU Utilization - 08:00: 55%" fill="#E74C3C" r="3"/><circle class="plotto-point" cx="417.67" cy="81.04" data-title="CPU Utilization - 12:00: 88%" fill="#E74C3C" r="3"/><circle class="plotto-point" cx="521.00" cy="122.08" data-title="CPU Utilization - 16:00: 76%" fill="#E74C3C" r="3"/><circle class="plotto-point" cx="624.33" cy="238.36" data-title="CPU Utilization - 20:00: 42%" fill="#E74C3C" r="3"/><circle class="plotto-point" cx="107.67" cy="176.80" data-title="Memory Usage - 00:00: 60%" fill="#3498DB" r="3"/><circle class="plotto-point" cx="211.00" cy="169.96" data-title="Memory Usage - 04:00: 62%" fill="#3498DB" r="3"/><circle class="plotto-point" cx="314.33" cy="149.44" data-title="Memory Usage - 08:00: 68%" fill="#3498DB" r="3"/><circle class="plotto-point" cx="417.67" cy="91.30" data-title="Memory Usage - 12:00: 85%" fill="#3498DB" r="3"/><circle class="plotto-point" cx="521.00" cy="101.56" data-title="Memory Usage - 16:00: 82%" fill="#3498DB" r="3"/><circle class="plotto-point" cx="624.33" cy="142.60" data-title="Memory Usage - 20:00: 70%" fill="#3498DB" r="3"/><circle class="plotto-point" cx="107.67" cy="347.80" data-title="Disk I/O - 00:00: 10%" fill="#2ECC71" r="3"/><circle class="plotto-point" cx="211.00" cy="330.70" data-title="Disk I/O - 04:00: 15%" fill="#2ECC71" r="3"/><circle class="plotto-point" cx="314.33" cy="262.30" data-title="Disk I/O - 08:00: 35%" fill="#2ECC71" r="3"/><circle class="plotto-point" cx="417.67" cy="159.70" data-title="Disk I/O - 12:00: 65%" fill="#2ECC71" r="3"/><circle class="plotto-point" cx="521.00" cy="245.20" data-title="Disk I/O - 16:00: 40%" fill="#2ECC71" r="3"/><circle class="plotto-point" cx="624.33" cy="313.60" data-title="Disk I/O - 20:00: 20%" fill="#2ECC71" r="3"/><text class="plotto-title" fill="#333333" font-size="18" text-anchor="middle" x="350.00" y="18">Server Performance (24h)</text><line class="plotto-legend-swatch" stroke="#E74C3C" stroke-width="3" x1="201.52" x2="219.52" y1="440.00" y2="440.00"/><text class="plotto-legend-text" fill="#333333" font-size="12" text-anchor="start" x="225.52" y="446.00">CPU Utilization</text><line class="plotto-legend-swatch" stroke="#3498DB" stroke-dasharray="4,2" stroke-width="3" x1="329.86" x2="347.86" y1="440.00" y2="440.00"/><text class="plotto-legend-text" fill="#333333" font-size="12" text-anchor="start" x="353.86" y="446.00">Memory Usage</text><line class="plotto-legend-swatch" stroke="#2ECC71" stroke-dasharray="2,3" stroke-width="3" x1="459.87" x2="477.87" y1="440.00" y2="440.00"/><text class="plotto-legend-text" fill="#333333" font-size="12" text-anchor="start" x="483.87" y="446.00">Disk I/O</text></svg>